<!DOCTYPE svg PUBLIC "-//W3C//DTD SVG 1.1//EN" "http://www.w3.org/Graphics/SVG/1.1/DTD/svg11.dtd">
<!-- Uploaded to: SVG Repo, www.svgrepo.com, Transformed by: SVG Repo Mixer Tools -->
<svg fill="#dc143c" width="800px" height="800px" viewBox="0 0 256 256" id="Flat" xmlns="http://www.w3.org/2000/svg" stroke="#dc143c">
<g id="SVGRepo_bgCarrier" stroke-width="0"/>
<g id="SVGRepo_tracerCarrier" stroke-linecap="round" stroke-linejoin="round"/>
<g id="SVGRepo_iconCarrier"> <path d="M223.87109,65.43115l-12.15722,66.86231A23.98711,23.98711,0,0,1,188.10156,152H72.13135l4.36377,24H184a24.01161,24.01161,0,1,1-22.624,16H102.624a24.00309,24.00309,0,1,1-40.85986-7.57666L34.05078,32H16a8,8,0,0,1,0-16H34.05078A15.9918,15.9918,0,0,1,49.793,29.13818L54.67676,56H216a8.00076,8.00076,0,0,1,7.87109,9.43115Z"/> </g>
</svg>